<?xml version="1.0" encoding="utf-8"?>
<!-- Generator: Adobe Illustrator 19.1.1, SVG Export Plug-In . SVG Version: 6.00 Build 0)  -->
<svg version="1.1" xmlns="http://www.w3.org/2000/svg" xmlns:xlink="http://www.w3.org/1999/xlink" x="0px" y="0px"
	 viewBox="266 -56 944 944" style="enable-background:new 266 -56 944 944;" xml:space="preserve">
<style type="text/css">
	.st0{display:none;}
	.st1{display:inline;}
	.st2{fill:#337AB7;}
	.st3{fill:#FFFFFF;}
	.st4{fill:#231F20;}
</style>
<g id="black_base" class="st0">
	<rect x="266" y="-56" class="st1" width="944" height="944"/>
</g>
<g id="Neutron" image-rendering="optimizeSpeed">
	<path id="background" class="st2" d="M1175.6,235.3c-5.7-13.9-12.2-27.5-19.4-40.9c-4.1-7.5-8.4-15-12.9-22.4
		c-19.6-31.7-43.4-61.6-71.6-89.8C979.6-9.9,868.3-56,738-56S496.4-9.9,404.2,82.2S266,285.6,266,416s46.1,241.6,138.3,333.8
		S607.6,888,738,888s241.6-46,333.8-138.2c50.8-50.8,87.6-107.4,110.3-169.8c18.6-50.8,27.9-105.5,27.9-164
		c0-44.9-5.5-87.6-16.4-128c-1.3-4.5-2.6-9.1-3.9-13.6C1185.6,261.1,1180.8,248,1175.6,235.3z"/>
	<g id="Calque.__213">
		<g id="Symbole.__208_4">
			<g id="Calque.__214">
				<g id="shape24">
					<path id="path18" class="st3" d="M841.9,415.9c0-91-9.2-168.7-27.4-233c-20.1-71.1-45.6-105.7-76.6-104
						c-31-1.8-56.5,32.9-76.6,104c-18.3,64.3-27.4,142-27.4,233s9.2,168.7,27.4,233.1c20.1,71.1,45.6,105.7,76.6,103.9
						c31,1.8,56.5-32.8,76.6-103.9C832.8,584.6,841.9,506.9,841.9,415.9z M791.4,189.4c17.7,62.5,26.5,138,26.5,226.5
						s-8.8,164-26.5,226.5c-15.8,56-33.7,84.8-53.5,86.5c-19.8-1.7-37.6-30.5-53.5-86.5c-17.6-62.5-26.5-138.1-26.5-226.5
						s8.9-163.9,26.5-226.5c15.9-56,33.7-84.9,53.5-86.5C757.8,104.6,775.6,133.5,791.4,189.4L791.4,189.4z"/>
				</g>
			</g>
		</g>
		<g id="Symbole.__208_5">
			<g id="Calque.__215">
				<g id="shape25">
					<path id="path19" class="st3" d="M685.9,506.1c-78.8-45.5-141.5-92.3-188.1-140.3c-51.5-53-68.7-92.4-51.7-118.3
						c14-27.7,56.7-32.4,128.3-14.4c64.9,16.4,136.7,47.3,215.5,92.8s141.5,92.3,188.2,140.3c51.5,53,68.7,92.4,51.7,118.3
						c-14,27.7-56.7,32.5-128.3,14.4C836.6,582.5,764.7,551.6,685.9,506.1z M515,349.1c45.3,46.6,106.3,92,182.9,136.2
						c76.6,44.2,146.4,74.3,209.4,90.3c56.4,14.2,90.3,13.3,101.6-3.1c8.5-18-7.6-47.9-48.1-89.6c-45.3-46.6-106.3-92-182.9-136.2
						c-76.6-44.2-146.4-74.3-209.4-90.3c-56.4-14.3-90.3-13.3-101.7,3.1C458.4,277.5,474.5,307.4,515,349.1L515,349.1z"/>
				</g>
			</g>
		</g>
		<g id="Symbole.__208_6">
			<g id="Calque.__216">
				<g id="shape26">
					<path id="path20" class="st3" d="M789.9,506.1c78.8-45.5,141.5-92.3,188.1-140.3c51.5-53,68.7-92.4,51.7-118.3
						c-14-27.7-56.7-32.4-128.3-14.4c-64.9,16.4-136.7,47.3-215.5,92.8s-141.5,92.3-188.2,140.3c-51.5,53-68.7,92.4-51.7,118.3
						c14,27.7,56.7,32.5,128.3,14.4C639.3,582.5,711.1,551.6,789.9,506.1z M960.8,349.1c-45.3,46.6-106.3,92-182.9,136.2
						c-76.6,44.2-146.4,74.3-209.4,90.3c-56.4,14.2-90.3,13.3-101.6-3.1c-8.5-18,7.6-47.9,48.1-89.6c45.3-46.6,106.3-92,182.9-136.2
						c76.6-44.2,146.4-74.3,209.4-90.3c56.4-14.3,90.3-13.3,101.7,3.1C1017.5,277.5,1001.4,307.4,960.8,349.1L960.8,349.1z"/>
				</g>
			</g>
		</g>
		<g id="Symbole.__212_2">
			<g id="Calque.__217">
				<g id="shape27">
					<path id="path21" class="st4" d="M775.4,453.4c10.4-10.3,15.5-22.8,15.5-37.5c0-14.6-5.2-27.1-15.5-37.5
						c-10.4-10.4-22.8-15.5-37.5-15.5c-14.6,0-27.1,5.1-37.5,15.5c-10.3,10.4-15.5,22.9-15.5,37.5c0,14.7,5.2,27.1,15.5,37.5
						c10.4,10.3,22.9,15.5,37.5,15.5C752.6,468.9,765,463.7,775.4,453.4z"/>
				</g>
			</g>
		</g>
		<g id="Symbole.__214_2">
			<g id="Calque.__218">
				<g id="shape28">
					<path id="path22" class="st4" d="M1006.4,353.9c0-9.8-3.5-18.2-10.4-25.1c-6.9-6.9-15.3-10.4-25.1-10.4s-18.2,3.5-25.1,10.4
						c-7,7-10.4,15.3-10.4,25.1s3.5,18.1,10.4,25.1c6.9,6.9,15.3,10.4,25.1,10.4S989.1,386,996,379
						C1003,372.1,1006.4,363.7,1006.4,353.9z M600.9,241.4c0-9.8-3.5-18.1-10.4-25.1c-7-6.9-15.3-10.4-25.1-10.4
						s-18.1,3.5-25.1,10.4c-7,7-10.4,15.3-10.4,25.1s3.5,18.1,10.4,25.1c7,6.9,15.3,10.4,25.1,10.4s18.2-3.5,25.1-10.4
						C597.5,259.6,600.9,251.2,600.9,241.4z M840.4,639.9c0-9.8-3.5-18.2-10.4-25.1c-6.9-7-15.3-10.4-25.1-10.4s-18.2,3.5-25.1,10.4
						c-7,6.9-10.4,15.3-10.4,25.1s3.5,18.2,10.4,25.1c6.9,7,15.3,10.4,25.1,10.4S823.1,672,830,665
						C837,658.1,840.4,649.7,840.4,639.9z"/>
				</g>
			</g>
		</g>
	</g>
</g>
</svg>
